# xmcd
#
# Track frame offsets:
#	150
#	13100
#	25417
#	43592
#	58270
#	76507
#	88376
#	105555
#	117383
#	131657
#	147649
#	161688
#	178028
#	193672
#	212782
#	238116
#
# Disc length: 3189 seconds
#
# Revision: 0
# Processed by: cddbd v1.5.2PL0 Copyright (c) Steve Scherf et al.
# Submitted via: audiograbber 1.83.01
#
DISCID=e90c7310
DTITLE=Dolly Parton - 90147
DYEAR=2003
DGENRE=Country
TTITLE0=I Will Always Love You
TTITLE1=Why'd You Come In Here Lookin' Like That
TTITLE2=Yellow Roses
TTITLE3=Mule Skinner Blues
TTITLE4=Silver And Gold
TTITLE5=The Bargain Store
TTITLE6=Applejack
TTITLE7=Love Is Like A Buttlerfy
TTITLE8=The Seeker
TTITLE9=But You Know That I Love You
TTITLE10=Tennessee Homesick Blues
TTITLE11=Country Road
TTITLE12=My Tennessee Mountain Home
TTITLE13=White Limozeen
TTITLE14=Dont' Call It Love
TTITLE15=Track U/K
EXTD=CD+G - Artist Series Karaoke In The Style of Dolly Parton - Best in Countr
EXTD=y
EXTT0=
EXTT1=
EXTT2=
EXTT3=
EXTT4=
EXTT5=
EXTT6=
EXTT7=
EXTT8=
EXTT9=
EXTT10=
EXTT11=
EXTT12=
EXTT13=
EXTT14=
EXTT15=
PLAYORDER=
